HIERARCHY
ROOT hip
{
  OFFSET 0 0 0
  CHANNELS 6 Xposition Yposition Zposition Zrotation Yrotation Xrotation
  JOINT abdomen
  {
    OFFSET 0 20.6881 -0.73152
    CHANNELS 3 Zrotation Xrotation Yrotation
    JOINT chest
    {
      OFFSET 0 11.7043 -0.48768
      CHANNELS 3 Zrotation Xrotation Yrotation
      JOINT neck
      {
        OFFSET 0 22.1894 -2.19456
        CHANNELS 3 Zrotation Xrotation Yrotation
        JOINT head
        {
          OFFSET -0.24384 7.07133 1.2192
          CHANNELS 3 Zrotation Xrotation Yrotation
          JOINT leftEye
          {
            OFFSET 4.14528 8.04674 8.04672
            CHANNELS 3 Zrotation Xrotation Yrotation
            End Site
            {
              OFFSET 1 0 0
            }
          }
          JOINT rightEye
          {
            OFFSET -3.6576 8.04674 8.04672
            CHANNELS 3 Zrotation Xrotation Yrotation
            End Site
            {
              OFFSET 1 0 0
            }
          }
        }
      }
      JOINT rCollar
      {
        OFFSET -2.68224 19.2634 -4.8768
        CHANNELS 3 Zrotation Xrotation Yrotation
        JOINT rShldr
        {
          OFFSET -8.77824 -1.95073 1.46304
          CHANNELS 3 Zrotation Xrotation Yrotation
          JOINT rForeArm
          {
            OFFSET -28.1742 -1.7115 0.48768
            CHANNELS 3 Zrotation Xrotation Yrotation
            JOINT rHand
            {
              OFFSET -22.5879 0.773209 7.07136
              CHANNELS 3 Zrotation Xrotation Yrotation
              JOINT rThumb1
              {
                OFFSET -1.2192 -0.487915 3.41376
                CHANNELS 3 Zrotation Xrotation Yrotation
                JOINT rThumb2
                {
                  OFFSET -3.37035 -0.52449 3.41376
                  CHANNELS 3 Zrotation Xrotation Yrotation
                  End Site
                  {
                    OFFSET -1.78271 -1.18214 1.43049
                  }
                }
              }
              JOINT rIndex1
              {
                OFFSET -7.75947 0.938293 5.60832
                CHANNELS 3 Zrotation Xrotation Yrotation
                JOINT rIndex2
                {
                  OFFSET -2.54057 -0.884171 1.56538
                  CHANNELS 3 Zrotation Xrotation Yrotation
                  End Site
                  {
                    OFFSET -1.62519 -0.234802 1.16502
                  }
                }
              }
              JOINT rMid1
              {
                OFFSET -8.24714 1.18213 3.41376
                CHANNELS 3 Zrotation Xrotation Yrotation
                JOINT rMid2
                {
                  OFFSET -3.10165 -0.590103 1.0647
                  CHANNELS 3 Zrotation Xrotation Yrotation
                  End Site
                  {
                    OFFSET -2.48547 -0.328903 0.83742
                  }
                }
              }
              JOINT rRing1
              {
                OFFSET -8.82822 0.546677 1.51678
                CHANNELS 3 Zrotation Xrotation Yrotation
                JOINT rRing2
                {
                  OFFSET -2.60934 -0.819778 -0.0198488
                  CHANNELS 3 Zrotation Xrotation Yrotation
                  End Site
                  {
                    OFFSET -2.33842 -0.294052 0.168128
                  }
                }
              }
              JOINT rPinky1
              {
                OFFSET -8.27202 -0.0477905 -0.4584
                CHANNELS 3 Zrotation Xrotation Yrotation
                JOINT rPinky2
                {
                  OFFSET -1.82734 -0.647385 -0.700984
                  CHANNELS 3 Zrotation Xrotation Yrotation
                  End Site
                  {
                    OFFSET -1.69225 -0.51767 -0.607171
                  }
                }
              }
            }
          }
        }
      }
      JOINT lCollar
      {
        OFFSET 2.68224 19.2634 -4.8768
        CHANNELS 3 Zrotation Xrotation Yrotation
        JOINT lShldr
        {
          OFFSET 8.77824 -1.95073 1.46304
          CHANNELS 3 Zrotation Xrotation Yrotation
          JOINT lForeArm
          {
            OFFSET 28.1742 -1.7115 0.48768
            CHANNELS 3 Zrotation Xrotation Yrotation
            JOINT lHand
            {
              OFFSET 22.5879 0.773209 7.07136
              CHANNELS 3 Zrotation Xrotation Yrotation
              JOINT lThumb1
              {
                OFFSET 1.2192 -0.487915 3.41376
                CHANNELS 3 Zrotation Xrotation Yrotation
                JOINT lThumb2
                {
                  OFFSET 3.37035 -0.52449 3.41376
                  CHANNELS 3 Zrotation Xrotation Yrotation
                  End Site
                  {
                    OFFSET 1.78271 -1.18214 1.43049
                  }
                }
              }
              JOINT lIndex1
              {
                OFFSET 7.75947 0.938293 5.60832
                CHANNELS 3 Zrotation Xrotation Yrotation
                JOINT lIndex2
                {
                  OFFSET 2.54057 -0.884171 1.56538
                  CHANNELS 3 Zrotation Xrotation Yrotation
                  End Site
                  {
                    OFFSET 1.62519 -0.234802 1.16502
                  }
                }
              }
              JOINT lMid1
              {
                OFFSET 8.24714 1.18213 3.41376
                CHANNELS 3 Zrotation Xrotation Yrotation
                JOINT lMid2
                {
                  OFFSET 3.10165 -0.590103 1.0647
                  CHANNELS 3 Zrotation Xrotation Yrotation
                  End Site
                  {
                    OFFSET 2.48547 -0.328903 0.83742
                  }
                }
              }
              JOINT lRing1
              {
                OFFSET 8.82822 0.546677 1.51678
                CHANNELS 3 Zrotation Xrotation Yrotation
                JOINT lRing2
                {
                  OFFSET 2.60934 -0.819778 -0.0198488
                  CHANNELS 3 Zrotation Xrotation Yrotation
                  End Site
                  {
                    OFFSET 2.33842 -0.294052 0.168128
                  }
                }
              }
              JOINT lPinky1
              {
                OFFSET 8.27202 -0.0477905 -0.4584
                CHANNELS 3 Zrotation Xrotation Yrotation
                JOINT lPinky2
                {
                  OFFSET 1.82734 -0.647385 -0.700984
                  CHANNELS 3 Zrotation Xrotation Yrotation
                  End Site
                  {
                    OFFSET 1.69225 -0.51767 -0.607171
                  }
                }
              }
            }
          }
        }
      }
    }
  }
  JOINT rButtock
  {
    OFFSET -8.77824 4.35084 1.2192
    CHANNELS 3 Zrotation Xrotation Yrotation
    JOINT rThigh
    {
      OFFSET 0 -1.70687 -2.19456
      CHANNELS 3 Zrotation Xrotation Yrotation
      JOINT rShin
      {
        OFFSET 0 -36.8199 0.73152
        CHANNELS 3 Zrotation Xrotation Yrotation
        JOINT rFoot
        {
          OFFSET 0.73152 -45.1104 -5.12064
          CHANNELS 3 Zrotation Xrotation Yrotation
          End Site
          {
            OFFSET -1.1221 -3.69964 12.103
          }
        }
      }
    }
  }
  JOINT lButtock
  {
    OFFSET 8.77824 4.35084 1.2192
    CHANNELS 3 Zrotation Xrotation Yrotation
    JOINT lThigh
    {
      OFFSET 0 -1.70687 -2.19456
      CHANNELS 3 Zrotation Xrotation Yrotation
      JOINT lShin
      {
        OFFSET 0 -36.8199 0.73152
        CHANNELS 3 Zrotation Xrotation Yrotation
        JOINT lFoot
        {
          OFFSET -0.73152 -45.1104 -5.12064
          CHANNELS 3 Zrotation Xrotation Yrotation
          End Site
          {
            OFFSET 1.1221 -3.69964 12.103
          }
        }
      }
    }
  }
}
MOTION
Frames:	8
Frame Time:	0.00833333
-278.6281 81.04596 -25.994865 -178.02415 50.87674 -166.00873 0.80881697 -2.5032198 2.2590375 0.87326986 -0.7084454 0.17327347 -0.41952515 11.403938 -0.30967125 -5.005268 -8.259781 -0.50729024 -0.0050066896 -0.016036868 0.05127775 0.013504329 -0.014091437 -0.04577246 0.039108336 -0.007258627 0.012891463 78.24752 45.209743 2.593918 -28.419792 -36.9012 79.15968 0.01713704 -7.2132616 -0.8529295 0.01668478 -0.0018170745 -0.04055285 0.01588309 -0.03286239 0.04263451 -0.027123345 -0.009960602 0.060284525 7.7204127 5.4435005 0.44461694 -0.0054417234 -0.00013264084 0.03409057 2.9785147 0.9456914 0.13637452 -0.08492465 -0.0010934784 0.040526524 10.248589 0.7771078 0.092316665 0.053183474 0.0077541852 -0.019570587 2.2588859 -0.72935575 -0.2049453 -0.06659321 -0.011700604 -0.079437435 -76.320335 50.825836 -12.442762 28.267729 -36.251266 -76.79527 1.3101926 -30.689978 4.2373986 -0.012825292 0.028137127 -0.008315453 0.046634924 0.004399187 -0.0510043 -0.016096678 -0.018816125 0.025836306 -7.722139 5.457831 -0.37016493 0.002983167 0.03168654 -0.022212327 -2.9208014 0.9579284 -0.06517398 0.007995125 0.027933069 -0.05094478 -10.316192 0.68693775 -0.049055427 -0.0030898459 -0.05833286 0.05147328 -2.2592828 -0.71517366 0.18366799 -0.06833347 -0.031134011 0.014971512 2.222794 -32.740437 -4.3863654 -0.33140153 33.421528 0.7341609 -4.4232883 -10.980194 -13.884634 0.030233327 0.053406768 0.0042760014 -8.210683 -30.060825 -3.1803157 0.11912843 42.846905 0.45661366 -1.1092345 -9.318178 -4.1522636
-280.5677 81.0513 -25.629208 -178.03728 50.836754 -166.01498 0.83189183 -2.5351055 2.2483675 0.8795398 -0.6857027 0.16734281 -0.4195187 11.412916 -0.30135092 -5.0445204 -8.269762 -0.49975893 -0.0043075434 -0.01622527 0.051191643 0.01321318 -0.014220932 -0.045597788 0.039246827 -0.007264095 0.012889604 78.318436 45.21377 2.5244942 -28.418642 -36.895977 79.15193 0.016090542 -7.187664 -0.8501066 0.016650664 -0.0017821392 -0.040362917 0.01543195 -0.03337695 0.04199997 -0.027874265 -0.009844798 0.059847083 7.72062 5.4432526 0.44463956 -0.0052949428 -0.00025081172 0.033911686 2.978158 0.9457176 0.13667558 -0.08490957 -0.00079256884 0.04039367 10.2485695 0.77698267 0.09245016 0.052998703 0.007747919 -0.019693708 2.2586315 -0.7294921 -0.20512968 -0.066590875 -0.011943155 -0.07948922 -76.19589 50.89927 -12.537408 28.269526 -36.227497 -76.75443 1.3150156 -30.729843 4.247247 -0.0126450965 0.028084215 -0.008478017 0.046305925 0.004715194 -0.051347747 -0.016157793 -0.018806783 0.026076946 -7.7227545 5.457897 -0.37010112 0.0028284886 0.03199202 -0.022397228 -2.9205706 0.95729715 -0.06496785 0.007866485 0.028062457 -0.050579928 -10.316209 0.68722415 -0.049161583 -0.0028140382 -0.058237527 0.051364653 -2.258986 -0.71557313 0.18373206 -0.0682259 -0.031427607 0.015307331 2.2134233 -32.75611 -4.3797507 -0.33171645 33.415314 0.73435354 -4.42274 -10.996467 -13.851481 0.030279625 0.05329536 0.0040367283 -8.244431 -30.055668 -3.1503975 0.12006775 42.850113 0.4555332 -1.1120278 -9.322546 -4.152392
-282.51498 81.05515 -25.262207 -178.0463 50.83186 -166.01762 0.85112375 -2.5660503 2.2399359 0.8843656 -0.6640806 0.1623888 -0.42001006 11.422315 -0.2956629 -5.080403 -8.279036 -0.4957995 -0.0037484604 -0.016376058 0.051179715 0.012953412 -0.014341559 -0.045432955 0.0393419 -0.007270204 0.012846067 78.383736 45.216183 2.459553 -28.417614 -36.895054 79.15152 0.015125958 -7.162068 -0.84718883 0.016633032 -0.0017339453 -0.040210307 0.01501659 -0.03382836 0.041427825 -0.028508034 -0.009712594 0.059451118 7.720788 5.443034 0.44469664 -0.005173787 -0.0003709779 0.033777874 2.9777832 0.94566983 0.13701475 -0.084895775 -0.00045601645 0.04027174 10.248605 0.7768468 0.092573 0.05286275 0.0076826327 -0.019813774 2.2583883 -0.72958654 -0.2052842 -0.06661601 -0.01218552 -0.0794699 -76.087105 50.965237 -12.611907 28.271095 -36.213055 -76.72915 1.3193674 -30.763874 4.2555037 -0.012517383 0.028033577 -0.008605169 0.046008993 0.005014775 -0.051635195 -0.016226454 -0.018807217 0.026326504 -7.723264 5.457934 -0.37004668 0.0026866717 0.032300416 -0.022530634 -2.92034 0.9567624 -0.06475224 0.0077255005 0.028175402 -0.050246917 -10.316213 0.68751234 -0.049269352 -0.0025626263 -0.058141775 0.051240914 -2.258716 -0.7159234 0.18383257 -0.068087265 -0.031708833 0.015590268 2.1999946 -32.78097 -4.3805804 -0.33227596 33.412643 0.73478854 -4.4228625 -11.0095005 -13.821937 0.030325558 0.05314273 0.0038545835 -8.283761 -30.049248 -3.1259947 0.121197164 42.84992 0.45478082 -1.1147673 -9.33276 -4.1534295
-284.46893 81.05762 -24.894005 -178.05075 50.848537 -166.01709 0.866485 -2.5954216 2.2329755 0.88791746 -0.6439111 0.15813547 -0.42150435 11.431758 -0.29283696 -5.1117864 -8.288249 -0.49547812 -0.0032952204 -0.016488628 0.051230155 0.01271921 -0.01444585 -0.045292284 0.03940423 -0.0072871563 0.012763106 78.44437 45.218624 2.397128 -28.416685 -36.898483 79.15839 0.014200238 -7.137289 -0.8442453 0.016639955 -0.0016753295 -0.040088553 0.0146422805 -0.034227904 0.040943548 -0.029038534 -0.00957014 0.059093885 7.72094 5.442839 0.4447678 -0.0050797374 -0.0004900596 0.033692684 2.977399 0.9455498 0.13737439 -0.08488432 -9.1285554e-05 0.04015112 10.24872 0.7767164 0.0926732 0.052777782 0.00757379 -0.019930864 2.2581742 -0.7296476 -0.20541233 -0.06665175 -0.012412954 -0.07938134 -75.99623 51.028606 -12.670038 28.27235 -36.2083 -76.720085 1.3233413 -30.79464 4.262565 -0.012443133 0.027993279 -0.008687705 0.04575739 0.0053043044 -0.051878072 -0.01630051 -0.018820025 0.026595306 -7.723667 5.4579716 -0.3700036 0.0025585128 0.032603845 -0.02260418 -2.9201338 0.95631766 -0.06452372 0.0075732577 0.028284242 -0.049946412 -10.316214 0.68778926 -0.049387008 -0.0023393452 -0.058051407 0.051102687 -2.2584782 -0.7162314 0.18394928 -0.067934215 -0.03198792 0.015825497 2.1833675 -32.815655 -4.388212 -0.33303556 33.413998 0.73547035 -4.42331 -11.018526 -13.7962885 0.030365085 0.05295947 0.0037223028 -8.328462 -30.040506 -3.1081975 0.12243411 42.84616 0.45442325 -1.1185434 -9.346253 -4.157732
-286.42834 81.05886 -24.524786 -178.05019 50.875942 -166.01382 0.8781861 -2.622697 2.2269056 0.890338 -0.6251627 0.15436313 -0.4242584 11.440793 -0.29273567 -5.137964 -8.297768 -0.4983369 -0.0029119293 -0.016564732 0.051325765 0.01250599 -0.014526459 -0.045189008 0.039449114 -0.0073210127 0.012648521 78.5007 45.222706 2.3363836 -28.41586 -36.906002 79.17193 0.01328702 -7.1137466 -0.84129393 0.01667589 -0.0016126727 -0.03999211 0.014317729 -0.034591228 0.04056251 -0.029479288 -0.009426456 0.058773234 7.7210803 5.4426556 0.44483513 -0.0050158887 -0.00060581055 0.033653554 2.9770098 0.9453651 0.13774042 -0.08487546 0.00029079072 0.040030424 10.248919 0.77661353 0.09274113 0.052744024 0.007438771 -0.020045992 2.2580028 -0.72968006 -0.20552447 -0.06668329 -0.012616535 -0.07923597 -75.92481 51.09334 -12.714843 28.27331 -36.21286 -76.72661 1.3269773 -30.823683 4.2687325 -0.012419456 0.027969342 -0.008723393 0.045567293 0.005587368 -0.05208841 -0.016377047 -0.018841889 0.026886892 -7.723961 5.4580255 -0.36997056 0.0024409234 0.03289357 -0.022619797 -2.919974 0.95596284 -0.06428238 0.0074155163 0.0283988 -0.049674865 -10.316211 0.6880477 -0.049520984 -0.0021439434 -0.0579728 0.05095499 -2.258278 -0.7164977 0.1840607 -0.06778462 -0.03227023 0.01602581 2.1648448 -32.85917 -4.401628 -0.33386824 33.419094 0.7363275 -4.423756 -11.023333 -13.774645 0.030392129 0.05275992 0.003628203 -8.37766 -30.029158 -3.0974476 0.123647094 42.839874 0.45457548 -1.1241326 -9.360482 -4.166943
-288.39215 81.05912 -24.154793 -178.04417 50.906277 -166.00836 0.8866301 -2.6475108 2.2213516 0.89174646 -0.6075453 0.15091237 -0.42826384 11.448979 -0.29491884 -5.1587048 -8.307692 -0.5035162 -0.002578049 -0.016608762 0.051448572 0.012308496 -0.014580307 -0.04512933 0.039489742 -0.0073754424 0.012508274 78.5528 45.229813 2.2774045 -28.415112 -36.917038 79.19116 0.01238237 -7.091494 -0.83832556 0.016741294 -0.0015529272 -0.039912954 0.014048992 -0.034931403 0.040289108 -0.029847264 -0.0092937695 0.058486294 7.721222 5.4424796 0.44488785 -0.0049839574 -0.00071466644 0.033653248 2.9766257 0.94512075 0.13809283 -0.08487076 0.0006827774 0.039908208 10.249191 0.7765489 0.09278168 0.052756377 0.007294796 -0.020159198 2.2578833 -0.7296902 -0.20562764 -0.06669967 -0.01278853 -0.079045124 -75.87345 51.162064 -12.748479 28.27396 -36.225685 -76.74694 1.3302385 -30.85142 4.2741346 -0.012439787 0.027963717 -0.00871266 0.04543967 0.0058647217 -0.052271258 -0.016454931 -0.01887156 0.027201334 -7.724152 5.4581137 -0.36994776 0.0023295216 0.03316365 -0.022584973 -2.919874 0.9556811 -0.064032845 0.0072560366 0.028524619 -0.049429778 -10.3162155 0.68828213 -0.049673244 -0.0019753664 -0.057909127 0.05080435 -2.25812 -0.7167299 0.18414788 -0.06765651 -0.03255512 0.016202563 2.145885 -32.909058 -4.41952 -0.334679 33.427017 0.73729026 -4.4239554 -11.024238 -13.756803 0.030401688 0.052559186 0.0035594688 -8.429888 -30.0156 -3.0934048 0.12470212 42.83283 0.45530865 -1.1318785 -9.373231 -4.181727
-290.35916 81.05863 -23.784323 -178.03276 50.93429 -166.00137 0.8922821 -2.6696997 2.2161422 0.8922278 -0.5906044 0.14769433 -0.4333023 11.455943 -0.29875883 -5.174199 -8.317903 -0.5099786 -0.0022723 -0.016626019 0.051579773 0.012123089 -0.01460879 -0.045113966 0.03953931 -0.007448482 0.012351347 78.600365 45.240864 2.2211888 -28.414423 -36.930805 79.21486 0.011474339 -7.0703444 -0.8353216 0.016833676 -0.0015043251 -0.039845202 0.013841515 -0.035261177 0.04012164 -0.030158155 -0.009182715 0.058227066 7.721373 5.442301 0.44492105 -0.0049847467 -0.0008147438 0.033683725 2.9762495 0.9448279 0.1384187 -0.084866986 0.0010761413 0.039784636 10.249524 0.77652836 0.09279298 0.05281011 0.007154747 -0.020269388 2.2578197 -0.7296822 -0.20572935 -0.06668999 -0.012924635 -0.07882612 -75.84168 51.235947 -12.772129 28.274353 -36.24517 -76.77838 1.3330595 -30.877432 4.278798 -0.01249878 0.027974917 -0.008663375 0.045375727 0.0061368444 -0.052428976 -0.016536456 -0.018903406 0.027533522 -7.7242546 5.458244 -0.36992592 0.0022179163 0.033410035 -0.02251383 -2.9198422 0.9554623 -0.063789256 0.00709877 0.028661914 -0.049202345 -10.316228 0.68848974 -0.049843308 -0.0018321641 -0.05786309 0.05066176 -2.2580097 -0.71693027 0.18418968 -0.06756186 -0.03283861 0.016368454 2.1277635 -32.9621 -4.4406095 -0.33536392 33.436493 0.7382433 -4.4237165 -11.021975 -13.742397 0.030391661 0.052371692 0.0035083997 -8.4833975 -30.000648 -3.0952387 0.12547421 42.827118 0.45667213 -1.1416912 -9.382936 -4.2017875
-292.32852 81.057655 -23.413696 -178.01643 50.95723 -165.9936 0.89564043 -2.68928 2.2112474 0.8918487 -0.5738428 0.14466843 -0.43901983 11.461398 -0.30353376 -5.184973 -8.328138 -0.5166844 -0.0019835033 -0.016621836 0.05170205 0.011948226 -0.014615208 -0.04514057 0.03960572 -0.0075381207 0.012185491 78.64278 45.25616 2.1692498 -28.413784 -36.946465 79.24164 0.010576418 -7.0500565 -0.83226997 0.016946698 -0.0014738318 -0.039784696 0.013697918 -0.03558936 0.040046632 -0.030420361 -0.009101518 0.057990585 7.721537 5.4421177 0.444932 -0.005017213 -0.0009026609 0.033732817 2.9758866 0.94449806 0.13870318 -0.08486402 0.0014646245 0.03966216 10.249888 0.77655405 0.0927899 0.052896366 0.007025691 -0.020374527 2.2578084 -0.7296599 -0.20583548 -0.066653535 -0.013023811 -0.07859293 -75.82832 51.314762 -12.786035 28.274527 -36.26948 -76.817856 1.3353679 -30.900621 4.282682 -0.012586322 0.028001847 -0.008582793 0.045365136 0.0064028213 -0.05256087 -0.016621804 -0.018933296 0.027875483 -7.724287 5.4584165 -0.36990142 0.002098565 0.033628155 -0.022421604 -2.9198782 0.9552957 -0.063567206 0.0069510094 0.028805945 -0.048988596 -10.316252 0.6886694 -0.050025787 -0.0017104059 -0.057833903 0.05053609 -2.2579534 -0.71709657 0.18417369 -0.0675098 -0.03311545 0.01653223 2.1113527 -33.014786 -4.4637184 -0.33586055 33.446056 0.73911387 -4.422937 -11.017418 -13.730872 0.030361095 0.05220817 0.0034663468 -8.536378 -29.985334 -3.1015491 0.12585193 42.824757 0.4586564 -1.1531044 -9.388807 -4.225928
